<svg xmlns="http://www.w3.org/2000/svg" width="64" height="64" viewBox="0 0 64 64" role="img" aria-labelledby="title">
  <title id="title">Arkroute favicon</title>
  <defs>
    <linearGradient id="signal" x1="15" y1="12" x2="50" y2="52" gradientUnits="userSpaceOnUse">
      <stop offset="0" stop-color="#f5fff4"/>
      <stop offset="0.48" stop-color="#7ff45e"/>
      <stop offset="1" stop-color="#45d9ff"/>
    </linearGradient>
  </defs>
  <rect width="64" height="64" rx="15" fill="#070907"/>
  <path d="M9 32H16M48 32H55" fill="none" stroke="url(#signal)" stroke-width="4.5" stroke-linecap="round"/>
  <path d="M21 16H43C46 16 48 18 48 21V43C48 46 46 48 43 48H21C18 48 16 46 16 43V21C16 18 18 16 21 16Z" fill="none" stroke="url(#signal)" stroke-width="4.5" stroke-linejoin="round"/>
  <path d="M24 27L30 32L24 37M33 37H41" fill="none" stroke="url(#signal)" stroke-width="4.5" stroke-linecap="round" stroke-linejoin="round"/>
  <circle cx="9" cy="32" r="2.5" fill="#7ff45e"/>
  <circle cx="55" cy="32" r="2.5" fill="#45d9ff"/>
</svg>
